<svg id="Layer_1" data-name="Layer 1" xmlns="http://www.w3.org/2000/svg" xmlns:xlink="http://www.w3.org/1999/xlink" viewBox="0 0 100 100"><defs><style>.cls-1{fill:none;}.cls-2{clip-path:url(#clip-path);}</style><clipPath id="clip-path"><rect class="cls-1" x="-0.33" y="-0.18" width="100.67" height="100.36"/></clipPath></defs><title>Logo-Vertical</title><g id="Artwork_1" data-name="Artwork 1"><g class="cls-2"><g class="cls-2"><path d="M94.68,92.1v2.41h1.23v1.62a2.37,2.37,0,0,1-.23,1.19,1,1,0,0,1-.93.36,1.55,1.55,0,0,1-.69-.13.8.8,0,0,1-.38-.37,1.54,1.54,0,0,1-.15-.46,2.55,2.55,0,0,1,0-.52V90.78c0-.35,0-.61,0-.77a2.53,2.53,0,0,1,.08-.52.65.65,0,0,1,.2-.39,1.23,1.23,0,0,1,.38-.17,2.22,2.22,0,0,1,.64-.07,1.83,1.83,0,0,1,.35,0,1.46,1.46,0,0,1,.35.12.63.63,0,0,1,.29.31,1.33,1.33,0,0,1,.11.56V91h4.42V86.43h0V-.18H-.33V100.18H28.45V90.06L31,100.17h4.15l2.39-10.11v10.11H42V86.43h1.08v13.74h4.46V86.43h3.11a5,5,0,0,0-.73.29c-.13.07-.27.14-.39.22a3.07,3.07,0,0,0-1.43,2.78c0,1.14.79,2.17,2.37,3.08l2,1.13a17.51,17.51,0,0,1,1.53,1,2.67,2.67,0,0,1,.7.74,1.86,1.86,0,0,1,.23,1,.86.86,0,0,1-.3.69,1.12,1.12,0,0,1-.8.27c-.74,0-1.11-.45-1.11-1.36V94.92H48.13V96.3a3.49,3.49,0,0,0,1.38,3,4,4,0,0,0,1,.5,5.82,5.82,0,0,0,2,.32h3.41a2.31,2.31,0,0,0,.46,0h0a5.22,5.22,0,0,0,1.55-.6,3.16,3.16,0,0,0,1-.93,3.4,3.4,0,0,0,.51-1.16,5.59,5.59,0,0,0,.11-.59,3.3,3.3,0,0,0,1.34,2.51,4.41,4.41,0,0,0,1,.5,5.91,5.91,0,0,0,2,.32h3.42a2.4,2.4,0,0,0,.46,0h0a5.12,5.12,0,0,0,1.55-.6,3.2,3.2,0,0,0,1-.93,3.84,3.84,0,0,0,.51-1.16,5.57,5.57,0,0,0,.14-1.34c0-.2,0-.35,0-.47s0-.3-.08-.54a2.12,2.12,0,0,0-.26-.66,6.29,6.29,0,0,0-.48-.68,4.18,4.18,0,0,0-.8-.75,9.09,9.09,0,0,0-1.19-.76l-2.8-1.51c-.86-.47-1.3-.9-1.3-1.3a.56.56,0,0,1,.33-.49,1.46,1.46,0,0,1,.78-.19,1.12,1.12,0,0,1,.64.19.55.55,0,0,1,.3.42l0,.84H70.6a4.53,4.53,0,0,0-.4-2A2.86,2.86,0,0,0,69,86.89l-.2-.11a4.4,4.4,0,0,0-.87-.35H71.2v13.74h4.46V86.43h1.08v13.74h4.51v-7l2.32,7h4.51V86.43H91.9l-.26.07h0a4.65,4.65,0,0,0-1.4.64,3,3,0,0,0-1,1.14,3.54,3.54,0,0,0-.4,1.73v6.07c0,2.2,1,3.57,2.91,4.09h8.55V92.09ZM33,93.46l-1.87-7h3.72Zm28.77-.66,2,1.13a17.51,17.51,0,0,1,1.53,1,2.83,2.83,0,0,1,.7.74,1.86,1.86,0,0,1,.23,1,.86.86,0,0,1-.3.69,1.17,1.17,0,0,1-.81.27c-.73,0-1.1-.45-1.1-1.36V94.92H59.34a1.92,1.92,0,0,0-.22-.51,6.29,6.29,0,0,0-.48-.68,3.9,3.9,0,0,0-.8-.75,8.47,8.47,0,0,0-1.19-.76l-2.79-1.51c-.87-.47-1.3-.9-1.3-1.3a.55.55,0,0,1,.32-.49,1.46,1.46,0,0,1,.78-.19,1.1,1.1,0,0,1,.64.19.54.54,0,0,1,.31.42l0,.84h4.69a4.68,4.68,0,0,0-.39-2,2.94,2.94,0,0,0-1.19-1.28l-.19-.11a4.66,4.66,0,0,0-.87-.35H62a5,5,0,0,0-.73.29l-.4.22a3.07,3.07,0,0,0-1.42,2.78c0,1.14.79,2.17,2.36,3.08m21.85.06-2-6.43h2Z"/></g></g></g></svg>
