<svg id="Layer_1" data-name="Layer 1" xmlns="http://www.w3.org/2000/svg" xmlns:xlink="http://www.w3.org/1999/xlink" viewBox="0 0 512 512"><defs><style>.cls-1{fill:none;}.cls-2{clip-path:url(#clip-path);}</style><clipPath id="clip-path"><rect class="cls-1" x="-0.5" y="0.29" width="513" height="511.42"/></clipPath></defs><title>Logo-vertical-512</title><g id="Artwork_1" data-name="Artwork 1"><g class="cls-2"><g class="cls-2"><path d="M483.67,470.52v12.33H490v8.25q0,4.17-1.17,6c-.78,1.24-2.36,1.86-4.72,1.86a8.24,8.24,0,0,1-3.51-.65,4,4,0,0,1-2-1.91,8.46,8.46,0,0,1-.77-2.33,17.94,17.94,0,0,1-.16-2.64V463.84c0-1.79,0-3.11.06-3.95a15.9,15.9,0,0,1,.4-2.66,3.33,3.33,0,0,1,1-2,5.85,5.85,0,0,1,1.94-.9,12,12,0,0,1,3.25-.36,8.92,8.92,0,0,1,1.8.16,7,7,0,0,1,1.78.63,3.24,3.24,0,0,1,1.5,1.59,6.47,6.47,0,0,1,.54,2.82v5.65h22.53l-.06-23.21h0V.29H-.5V511.71H124.33v0H146.2V460.15l13,51.51h21.15l12.18-51.51v51.51h22.88v-70h5.48v70h22.75v-70h15.86a21.88,21.88,0,0,0-3.72,1.45,20.54,20.54,0,0,0-2,1.14q-7.27,4.65-7.26,14.15,0,8.75,12,15.69l10,5.78a87.57,87.57,0,0,1,7.79,4.91,13.16,13.16,0,0,1,3.55,3.74,9.37,9.37,0,0,1,1.17,4.85,4.54,4.54,0,0,1-1.5,3.54,6,6,0,0,1-4.12,1.34q-5.62,0-5.62-6.9v-6.41H246.49v7q0,10.5,7,15.51a20.23,20.23,0,0,0,4.94,2.53,29.3,29.3,0,0,0,9.95,1.64h17.4a10.47,10.47,0,0,0,2.36-.26h0a25.75,25.75,0,0,0,7.89-3,16,16,0,0,0,4.92-4.75,18.59,18.59,0,0,0,2.61-5.92,24.81,24.81,0,0,0,.52-3q.81,8.44,6.87,12.8a20.23,20.23,0,0,0,4.94,2.53,29.22,29.22,0,0,0,9.95,1.64h17.4a10.32,10.32,0,0,0,2.35-.26h0a25.75,25.75,0,0,0,7.89-3,16,16,0,0,0,4.92-4.75,18.59,18.59,0,0,0,2.61-5.92,29.45,29.45,0,0,0,.74-6.84c0-1,0-1.78-.07-2.4a24.3,24.3,0,0,0-.44-2.73,10.4,10.4,0,0,0-1.3-3.36,35,35,0,0,0-2.44-3.46,22.85,22.85,0,0,0-4.08-3.85,48.28,48.28,0,0,0-6.06-3.84l-14.25-7.71q-6.63-3.58-6.63-6.63a2.85,2.85,0,0,1,1.64-2.49,7.77,7.77,0,0,1,4-1,5.93,5.93,0,0,1,3.28.94,2.82,2.82,0,0,1,1.54,2.15l.13,4.3H361a23.7,23.7,0,0,0-2-10.24,14.92,14.92,0,0,0-6-6.55c-.33-.19-.66-.38-1-.55a23.23,23.23,0,0,0-4.44-1.77H364v70h22.75v-70h5.48v70h23V475.93l11.77,35.73h23v-70h19.47c-.44.11-.89.2-1.33.33l-.07,0a23.55,23.55,0,0,0-7.12,3.25,16.24,16.24,0,0,0-4.92,5.8,18.5,18.5,0,0,0-2,8.83v30.94q0,16.85,14.82,20.84h43.57l0-41.2Zm-314.31,7-9.53-35.84h19ZM316,474.09l10,5.78a87.57,87.57,0,0,1,7.79,4.91,13.16,13.16,0,0,1,3.55,3.74,9.37,9.37,0,0,1,1.17,4.85,4.51,4.51,0,0,1-1.51,3.54,5.92,5.92,0,0,1-4.11,1.34q-5.62,0-5.62-6.9v-6.41H303.61a9.82,9.82,0,0,0-1.12-2.62,33.43,33.43,0,0,0-2.44-3.46A22.85,22.85,0,0,0,296,475a48.28,48.28,0,0,0-6.06-3.84l-14.25-7.71q-6.63-3.58-6.62-6.63a2.83,2.83,0,0,1,1.63-2.49,7.78,7.78,0,0,1,4-1,5.92,5.92,0,0,1,3.27.94,2.79,2.79,0,0,1,1.54,2.15l.14,4.3H303.5a23.55,23.55,0,0,0-2-10.24,15,15,0,0,0-6-6.55c-.33-.19-.67-.38-1-.55a23.23,23.23,0,0,0-4.44-1.77H317a22.23,22.23,0,0,0-5.74,2.59Q304,448.9,304,458.4q0,8.75,12.05,15.69m111.32.31-10.39-32.74h10.39Z"/></g></g></g></svg>
