<svg id="Layer_1" data-name="Layer 1" xmlns="http://www.w3.org/2000/svg" xmlns:xlink="http://www.w3.org/1999/xlink" viewBox="0 0 100 15"><defs><style>.cls-1{fill:none;}.cls-2{clip-path:url(#clip-path);}</style><clipPath id="clip-path"><rect class="cls-1" x="-0.08" width="100.17" height="15"/></clipPath></defs><title>Logo-Horizontal</title><g id="Artwork_2" data-name="Artwork 2"><g class="cls-2"><polygon points="-0.08 0.01 -0.08 14.9 3.48 14.9 3.48 12.85 14.61 12.85 14.61 0.01 -0.08 0.01"/><polygon points="30.85 0.01 28.83 7.78 26.8 0.01 19.38 0.01 19.38 14.9 19.38 14.95 19.38 15 24.02 15 24.02 4.12 26.72 15 31.11 15 33.64 4.12 33.64 15 38.39 15 38.39 0.01 30.85 0.01"/><rect x="39.53" width="4.72" height="14.99"/><g class="cls-2"><path d="M68.68,9.51a2.27,2.27,0,0,0-.27-.71,7.12,7.12,0,0,0-.51-.73,4.36,4.36,0,0,0-.84-.81,9.15,9.15,0,0,0-1.26-.81l-3-1.63c-.92-.5-1.38-1-1.38-1.4a.62.62,0,0,1,.35-.53,1.61,1.61,0,0,1,.82-.2,1.23,1.23,0,0,1,.68.2.57.57,0,0,1,.32.45l0,.91h5a5,5,0,0,0-.42-2.16A3,3,0,0,0,67,.71l-.16-.1A5.19,5.19,0,0,0,64.32,0H61a4.91,4.91,0,0,0-2.34.57l-.33.19a3.32,3.32,0,0,0-1.51,3c0,1.23.84,2.34,2.5,3.31l2.07,1.23a18.31,18.31,0,0,1,1.62,1,2.72,2.72,0,0,1,.74.79,2,2,0,0,1,.24,1,1,1,0,0,1-.31.75,1.22,1.22,0,0,1-.86.29c-.77,0-1.16-.49-1.16-1.46V9.35H56.71a2.21,2.21,0,0,0-.23-.55A7.12,7.12,0,0,0,56,8.07a4.44,4.44,0,0,0-.85-.81,8.45,8.45,0,0,0-1.25-.81l-3-1.63c-.92-.5-1.38-1-1.38-1.4a.61.61,0,0,1,.34-.53,1.64,1.64,0,0,1,.83-.2,1.23,1.23,0,0,1,.68.2.6.6,0,0,1,.32.45l0,.91h5a5,5,0,0,0-.42-2.16A3.1,3.1,0,0,0,55,.71l-.17-.1A5.15,5.15,0,0,0,52.39,0H49a4.91,4.91,0,0,0-2.34.57l-.33.19a3.32,3.32,0,0,0-1.51,3c0,1.23.83,2.34,2.5,3.31l2.07,1.23a18.31,18.31,0,0,1,1.62,1,2.86,2.86,0,0,1,.74.79,2,2,0,0,1,.24,1,1,1,0,0,1-.31.75,1.24,1.24,0,0,1-.86.29c-.78,0-1.17-.49-1.17-1.46V9.35H44.85v1.48a3.79,3.79,0,0,0,1.45,3.28,4.32,4.32,0,0,0,1,.53,5.93,5.93,0,0,0,2.05.35H53a2.05,2.05,0,0,0,.49-.06h0a5.34,5.34,0,0,0,1.64-.64,3.36,3.36,0,0,0,1-1A3.92,3.92,0,0,0,56.7,12a5.67,5.67,0,0,0,.11-.64,3.62,3.62,0,0,0,1.42,2.71,4.32,4.32,0,0,0,1,.53,6,6,0,0,0,2.05.35h3.63a2.05,2.05,0,0,0,.49-.06,5.34,5.34,0,0,0,1.64-.64,3.36,3.36,0,0,0,1-1A3.92,3.92,0,0,0,68.63,12a5.82,5.82,0,0,0,.16-1.44c0-.21,0-.38,0-.51a5.69,5.69,0,0,0-.09-.58"/><rect x="69.26" width="4.72" height="14.99"/><polygon points="82.4 7.13 80.18 0.01 75.12 0.01 75.12 15 79.9 15 79.9 7.45 82.34 15 87.12 15 87.12 0.01 82.4 0.01 82.4 7.13"/><path d="M100.08,6.3h-6v2.6h1.3v1.75a2.54,2.54,0,0,1-.24,1.27,1.07,1.07,0,0,1-1,.39,1.59,1.59,0,0,1-.73-.14.84.84,0,0,1-.41-.4,2.15,2.15,0,0,1-.16-.49,4.39,4.39,0,0,1,0-.56V4.9c0-.38,0-.66,0-.83A3.05,3.05,0,0,1,93,3.5a.66.66,0,0,1,.21-.41,1.36,1.36,0,0,1,.4-.19,2.53,2.53,0,0,1,.68-.07,2.05,2.05,0,0,1,.37,0A1.65,1.65,0,0,1,95,3a.69.69,0,0,1,.31.34,1.3,1.3,0,0,1,.11.59v1.2h4.68V0H92.9a7.25,7.25,0,0,0-2,.29A4.72,4.72,0,0,0,89.4,1a3.19,3.19,0,0,0-1,1.22A3.94,3.94,0,0,0,88,4.07V10.6Q88,14.16,91,15h9V6.3h0"/></g></g></g></svg>
