<?xml version="1.0" encoding="utf-8"?>
<!-- Generator: Adobe Illustrator 22.1.0, SVG Export Plug-In . SVG Version: 6.00 Build 0)  -->
<svg version="1.1" id="Layer_1" xmlns="http://www.w3.org/2000/svg" xmlns:xlink="http://www.w3.org/1999/xlink" x="0px" y="0px"
	 viewBox="0 0 150 150" style="enable-background:new 0 0 150 150;" xml:space="preserve">
<style type="text/css">
	.st0{fill:#FFFFFF;}
</style>
<g>
	<rect x="-2" y="-1" width="153" height="155"/>
</g>
<g>
	<g id="Search_1_">
		<g>
			<path class="st0" d="M114.2,105.2L99.3,90.4c4.1-5.8,6.5-12.9,6.5-20.5c0-19.8-16.1-35.9-35.9-35.9S34,50.1,34,69.9
				s16.1,35.9,35.9,35.9c7.6,0,14.7-2.4,20.5-6.5l14.8,14.8c2.5,2.5,6.5,2.5,8.9,0C116.6,111.7,116.6,107.7,114.2,105.2z M69.9,95.5
				c-14.2,0-25.6-11.5-25.6-25.6s11.5-25.6,25.6-25.6c14.2,0,25.6,11.5,25.6,25.6C95.5,84.1,84.1,95.5,69.9,95.5z"/>
		</g>
	</g>
</g>
</svg>
